<?xml version="1.0" encoding="utf-8"?>
<!-- Generator: Adobe Illustrator 19.0.0, SVG Export Plug-In . SVG Version: 6.00 Build 0)  -->
<svg version="1.1" id="layer" xmlns="http://www.w3.org/2000/svg" xmlns:xlink="http://www.w3.org/1999/xlink" x="0px" y="0px"
	 viewBox="-153 -46 652 652" style="enable-background:new -153 -46 652 652;" xml:space="preserve">
<style type="text/css">
	.st0{fill:#020202;}
	.st1{fill:#E1191D;}
</style>
<g>
	<g>
		<path class="st0" d="M-44,153.3c27.5,0,46,0.5,56.6,2.1c14.8,2.1,23.8,9,27,21.2c2.1,8.5,3.2,22.2,3.2,41.8s-1.1,33.9-3.2,42.3
			c-3.2,12.2-12.2,19-27,21.2c-10.1,1.6-29.1,2.1-56.1,2.1c-27.5,0-46.6-0.5-56.6-2.1c-14.8-2.1-23.8-9-27-21.2
			c-3.2-8.5-4.2-22.8-4.2-42.9c0-19,1.1-32.8,3.2-41.3c3.2-12.2,12.2-19,27-21.2C-90.6,153.8-71.5,153.3-44,153.3 M-44,186.6
			c-20.6,0-32.8,0.5-37,1.6c-4.8,1.1-7.9,3.7-9.5,7.9s-2.1,12.7-2.1,25.4c0,7.4,0.5,13.2,1.1,16.4c1.6,6.3,6.3,10.1,13.8,11.1
			c5.8,0.5,16.9,1.1,33.3,1.1c15.3,0,25.9-0.5,31.2-1.1s9-1.6,11.6-3.7c2.1-1.6,3.7-4.2,4.8-7.4c1.1-3.2,1.1-9,1.1-16.4
			c0-9-0.5-15.9-1.1-20.1s-1.6-7.4-3.2-9.5c-2.1-2.6-5.3-4.2-10.1-4.8C-14.9,186.6-26,186.6-44,186.6 M47.5,154.9h52.9l39.2,44.4
			l39.2-44.4h53.4l-60.8,63l64,64h-54.5l-41.3-45.5l-41.3,45.5H42.8l65.1-64L47.5,154.9z M243.3,154.9h40.2v127h-40.2V154.9z
			 M301.5,281.9v-127H393c16.4,0,27,0,31.7,0.5c4.8,0,10.1,1.1,15.9,2.1c12.7,2.6,21.2,10.1,24.9,21.7c1.6,4.2,2.1,9,2.6,14.3
			c0.5,5.3,0.5,12.7,0.5,23.3c0,11.1-0.5,20.1-1.1,25.9c-0.5,5.8-1.6,11.1-3.2,15.9c-3.7,11.1-11.6,18-23.3,20.6
			c-5.3,1.1-11.6,2.1-17.5,2.6c-6.3,0.5-16.4,0.5-30.7,0.5h-91.5V281.9z M339.6,249.6h54c10.1,0,16.9-0.5,21.7-1.1
			c4.8-0.5,7.9-1.6,10.1-3.2c2.1-1.6,3.7-4.8,4.2-8.5c1.1-3.7,1.1-10.1,1.1-17.5c0-7.9-0.5-13.8-1.1-18c-0.5-4.2-2.1-6.9-3.7-9
			c-2.1-2.1-5.3-3.7-9-4.2c-4.2-0.5-11.6-1.1-23.8-1.1h-53.4V249.6z"/>
		<path class="st1" d="M105.2,359.7c0-5.8-1.6-10.1-4.8-12.2c-2.1-1.6-4.8-2.6-8.5-3.2c-3.7-0.5-9-1.1-15.9-1.1
			c-5.8,0-10.6,0.5-13.8,1.1s-5.8,1.6-7.4,3.2c-3.2,2.1-4.8,6.3-5.3,12.2H105.2z M105.7,377.1h9.5c0,6.9-2.6,12.2-7.4,14.8
			c-4.8,2.6-13.2,4.2-25.4,4.2c-10.1,0-17.5-0.5-22.8-1.1s-9-2.1-11.6-3.7c-5.8-4.2-9-12.7-9-24.9c0-9,1.1-15.3,3.7-19.6
			c2.6-4.2,5.8-6.9,10.6-8.5s12.2-2.1,22.8-2.1c10.1,0,17.5,0.5,22.2,1.6c4.8,1.1,7.9,3.2,10.6,6.3c2.1,2.6,3.7,5.8,4.8,9
			c1.1,3.2,1.1,8.5,1.6,15.3H49.7c0,7.4,1.6,12.2,4.2,15.3c1.6,2.1,4.8,3.2,8.5,3.7c3.7,0.5,10.1,1.1,19,1.1
			c6.9,0,11.6-0.5,14.8-1.1c3.2-0.5,5.3-1.6,6.9-3.2C104.7,381.9,105.2,379.8,105.7,377.1"/>
		<path class="st0" d="M122.7,374.5h10.1v1.6c0,3.2,0.5,5.3,1.1,6.9c0.5,1.6,2.1,2.6,4.2,3.2c2.6,1.1,10.6,1.6,23.3,1.6
			c7.9,0,13.8,0,16.9-0.5c3.2-0.5,5.3-1.1,6.9-2.1c2.1-1.6,2.6-3.7,2.6-6.3c0-3.7-1.1-5.8-3.2-7.4c-2.1-1.1-6.3-2.1-12.2-2.1
			c-2.1,0-11.1,0-27-0.5c-4.2,0-7.4-0.5-10.1-1.1c-2.6-0.5-4.8-1.6-6.3-2.6c-3.2-2.6-4.8-6.3-4.8-12.2c0-6.3,2.1-10.6,5.8-13.2
			c2.1-1.6,5.3-2.6,10.1-3.2c4.8-0.5,11.6-1.1,20.6-1.1c10.1,0,17.5,0.5,22.2,1.6c4.8,1.1,7.9,3.2,10.6,5.8c1.1,1.6,1.6,2.6,2.1,4.2
			c0.5,1.6,0.5,3.7,0.5,7.4h-10.1c0-3.7-0.5-5.8-1.6-6.9c-1.1-1.1-3.7-2.1-7.4-2.6c-3.7-0.5-9-1.1-15.9-1.1
			c-12.7,0-20.6,1.1-23.3,2.6c-2.1,1.6-3.2,3.7-3.2,6.9s1.1,5.3,3.7,6.3c2.1,1.1,6.9,1.6,14.3,1.6c6.9,0,15.9,0,27,0.5
			c6.9,0,11.6,1.6,14.3,4.2c3.2,2.6,4.2,6.9,4.2,12.7c0,3.7-0.5,6.3-1.6,8.5c-1.1,2.1-2.6,4.2-5.3,5.3c-2.1,1.1-5.3,2.1-10.1,2.6
			c-4.8,0.5-11.1,0.5-20.1,0.5c-9.5,0-16.9-0.5-21.7-1.1c-4.8-0.5-7.9-1.6-10.6-3.2c-2.1-1.6-3.7-3.2-4.8-5.3
			c-1.1-2.1-1.6-5.3-1.6-9C122.1,377.1,122.7,376.1,122.7,374.5"/>
		<path class="st0" d="M239.6,368.1c-7.9,0-13.2,0-16.4,0.5c-3.2,0.5-5.3,0.5-6.3,1.6c-2.6,1.6-3.7,4.2-3.7,7.9
			c0,3.7,1.6,6.3,4.2,7.9c2.1,1.1,10.6,1.6,23.8,1.6c10.1,0,16.4-0.5,19.6-2.1c3.2-1.1,4.8-3.7,4.8-7.9c0-3.7-1.6-6.3-5.3-7.9
			C257.1,368.7,250.2,368.1,239.6,368.1 M215.8,353.8h-9.5c0-1.1,0-2.1,0-2.6c0-6.3,2.1-10.6,6.9-12.7c4.8-2.1,13.2-3.2,25.9-3.2
			c10.1,0,17.5,0.5,21.7,1.6c4.2,1.1,7.9,2.6,10.6,5.3c2.1,2.1,3.2,4.8,4.2,7.4c0.5,2.6,1.1,7.9,1.1,14.8v31.2h-9.5v-6.9h-0.5
			c-2.1,3.2-5.3,5.3-8.5,6.3c-3.2,1.1-9.5,1.6-18.5,1.6c-10.6,0-17.5,0-21.7-0.5c-4.2-0.5-6.9-1.6-9-3.2c-2.1-1.6-3.7-3.2-4.2-5.3
			c-1.1-2.1-1.1-4.8-1.1-8.5c0-4.8,0.5-7.9,1.6-10.6c1.1-2.6,3.2-4.2,6.3-5.3c3.2-1.6,10.6-2.1,22.2-2.1c12.2,0,20.1,0.5,23.8,1.1
			c3.7,0.5,6.9,2.6,8.5,5.3h1.1v-7.9c0-5.3-1.1-9-2.6-11.1c-1.6-2.1-4.2-3.2-7.4-4.2c-3.2-0.5-9-1.1-16.4-1.1
			c-10.1,0-16.4,0.5-19.6,1.6c-3.2,1.1-4.2,3.7-4.2,7.9v1.1H215.8z"/>
	</g>
	<rect x="286.2" y="309.9" class="st0" width="9.5" height="85.2"/>
	<g>
		<path class="st0" d="M370.3,359.7c0-5.8-1.6-10.1-4.8-12.2c-2.1-1.6-4.8-2.6-8.5-3.2c-3.7-0.5-9-1.1-15.9-1.1
			c-5.8,0-10.6,0.5-13.8,1.1s-5.8,1.6-7.4,3.2c-3.2,2.1-4.8,6.3-5.3,12.2H370.3z M370.8,377.1h9.5c0,6.9-2.6,12.2-7.4,14.8
			c-4.8,2.6-13.2,4.2-25.4,4.2c-10.1,0-17.5-0.5-22.8-1.1s-9-2.1-11.6-3.7c-5.8-4.2-9-12.7-9-24.9c0-9,1.1-15.3,3.7-19.6
			c2.6-4.2,5.8-6.9,10.6-8.5c4.8-1.6,12.2-2.1,22.8-2.1c10.1,0,17.5,0.5,22.2,1.6c4.8,1.1,7.9,3.2,10.6,6.3c2.1,2.6,3.7,5.8,4.8,9
			c1.1,3.2,1.1,8.5,1.6,15.3h-65.6c0,7.4,1.6,12.2,4.2,15.3c1.6,2.1,4.8,3.2,8.5,3.7c3.7,0.5,10.1,1.1,19,1.1
			c6.9,0,11.6-0.5,14.8-1.1c3.2-0.5,5.3-1.6,6.9-3.2C369.8,381.9,370.3,379.8,370.8,377.1"/>
		<path class="st0" d="M387.2,374.5h10.1v1.6c0,3.2,0.5,5.3,1.1,6.9c0.5,1.6,2.1,2.6,4.2,3.2c2.6,1.1,10.6,1.6,23.3,1.6
			c7.9,0,13.8,0,16.9-0.5s5.3-1.1,6.9-2.1c2.1-1.6,2.6-3.7,2.6-6.3c0-3.7-1.1-5.8-3.2-7.4c-2.1-1.1-6.3-2.1-12.2-2.1
			c-2.1,0-11.1,0-27-0.5c-4.2,0-7.4-0.5-10.1-1.1c-2.6-0.5-4.8-1.6-6.3-2.6c-3.2-2.6-4.8-6.3-4.8-12.2c0-6.3,2.1-10.6,5.8-13.2
			c2.1-1.6,5.3-2.6,10.1-3.2c4.8-0.5,11.6-1.1,20.6-1.1c10.1,0,17.5,0.5,22.2,1.6c4.8,1.1,7.9,3.2,10.6,5.8c1.1,1.6,1.6,2.6,2.1,4.2
			c0.5,1.6,0.5,3.7,0.5,7.4h-10.1c0-3.7-0.5-5.8-1.6-6.9c-1.1-1.1-3.7-2.1-7.4-2.6c-3.7-0.5-9-1.1-15.9-1.1
			c-12.7,0-20.6,1.1-23.3,2.6c-2.1,1.6-3.2,3.7-3.2,6.9s1.1,5.3,3.7,6.3c2.1,1.1,6.9,1.6,14.3,1.6c6.9,0,15.9,0,27,0.5
			c6.9,0,11.6,1.6,14.8,4.2c3.2,2.6,4.2,6.9,4.2,12.7c0,3.7-0.5,6.3-1.6,8.5s-2.6,4.2-5.3,5.3c-2.1,1.1-5.3,2.1-10.1,2.6
			c-4.8,0.5-11.1,0.5-20.1,0.5c-9.5,0-16.9-0.5-21.7-1.1c-4.8-0.5-7.9-1.6-10.6-3.2c-2.1-1.6-3.7-3.2-4.8-5.3
			c-1.1-2.1-1.6-5.3-1.6-9C387.2,377.1,387.2,376.1,387.2,374.5"/>
	</g>
</g>
</svg>
